<?xml version="1.0" encoding="UTF-8"?>
<svg xmlns="http://www.w3.org/2000/svg" version="1.1" viewBox="0 0 1920 1101">
  <defs>
    <style>
      .cls-1 {
        fill: #4776a2;
      }

      .cls-2 {
        fill: #313131;
      }

      .cls-3 {
        fill: #303132;
      }

      .cls-4 {
        fill: #4676a2;
      }

      .cls-5 {
        fill: #303131;
      }

      .cls-6 {
        fill: #47749e;
      }

      .cls-7 {
        fill: #303031;
      }

      .cls-8 {
        fill: #49759e;
      }

      .cls-9 {
        fill: #f9f9f9;
      }

      .cls-10 {
        fill: #4775a0;
      }

      .cls-11 {
        fill: #4f779a;
      }

      .cls-12 {
        fill: #4675a1;
      }

      .cls-13 {
        fill: #4675a0;
      }

      .cls-14 {
        fill: #4675a2;
      }

      .cls-15 {
        fill: #4b6e8e;
      }

      .cls-16 {
        fill: #47739b;
      }

      .cls-17 {
        fill: #e8e8e8;
      }
    </style>
  </defs>
  <!-- Generator: Adobe Illustrator 28.7.1, SVG Export Plug-In . SVG Version: 1.2.0 Build 142)  -->
  <g>
    <g id="Layer_1">
      <path class="cls-17" d="M1511.5,1.5c-.3.4-.6.2-.9-.3.2-.2.6-.2.9.3Z"/>
      <path class="cls-17" d="M411,1c.4.3.2.6-.3.9-.2-.2-.2-.6.3-.9Z"/>
      <path class="cls-14" d="M957.7,882.5c7.7,15.5,15.3,31,23.2,46.4,1.7,3.4,1.6,5.6-1.1,8.2-13.8,13-27.4,26.2-41.1,39.3-2.6,2.5-4.9,2.8-8.3,1-22.8-12.1-45.7-23.8-68.6-35.8-3-1.6-5.3-1.5-8.3,0-10.1,4.8-20.3,9.3-30.5,13.6-2.9,1.2-4.4,2.7-5.1,5.9-5.6,25-11.5,49.9-17.2,74.9-.7,3.1-2,4.4-5.1,4.9-19.6,3.1-39.3,4.9-59.2,4.5-4.1,0-5.7-1.5-7.2-5.1-9.6-23.4-19.5-46.6-29.1-70-1.3-3.2-3-4.8-6.6-5.6-10.2-2.4-20.2-5.4-30.2-8.5-3-.9-5.1-.6-7.7,1.4-20.5,15.7-41.2,31-61.7,46.7-2.7,2.1-4.9,2.5-7.6.6-16.5-11.5-33-23.1-49.5-34.6-2.4-1.7-2.7-3.5-1.8-6.4,7.8-24.4,15.3-48.8,23-73.2.9-2.9.9-5.1-1-7.7-6.8-9.1-13.3-18.3-19.6-27.7-1.6-2.4-3.3-3.7-6.3-3.8-21.3-1.1-42.6-2.3-63.8-3.5-5.3-.3-10.7-.4-15.9-1-1.5-.2-3.6-1.7-4.1-3.1-7.6-18.9-12.9-38.4-16.4-58.5-.3-1.4,1.4-3.9,2.8-4.8,21.2-13.8,42.5-27.4,64-40.9,3.1-2,3.9-4.1,4-7.6.6-12.1,1.5-24.2,2.6-36.3.4-4.1,0-7-3.4-10-18.8-17.2-37.3-34.8-55.9-52.1-2.2-2.1-3.2-3.9-1.8-6.9,7.9-17.4,15.6-34.9,23.6-52.2.5-1.2,3.2-2.2,4.7-2,25.9,3.1,51.8,6.5,77.7,9.7,1.4.2,3.4-.7,4.5-1.8,3.8-4,7.3-8.2,11.3-12,.8,15.3,1.2,30.3,1.5,45.2.4,21.1.7,42.3,1,63.4.3,18.6.7,37.3,1,55.9.5,34,.8,67.9,1.3,101.9.1,10.6.4,21.3.9,31.9,0,1.7,1.4,4.1,2.9,5,6.2,3.9,12.4,7.8,19,11,3.6,1.7,7.7,3.1,11.6,3.1,36.3,0,72.6-.4,109.2-.5,1.2.5,2.1,1.2,3,1.3,19.1,3,38,3.2,57.4-1.6,2.6-.1,4.8-.3,6.9-.1,2.9.2,5.3-.2,6.4-3.4.3-.3.5-.5.6-.6,0,0-.1,0,.3.1,8-2.7,15.7-5.5,23.4-7.9.2,3.4.3,6.3.5,10,5.9-.7,11.3-1.5,16.7-2.1,16.5-1.7,33-3.4,49.4-4.9,3.1-.3,3.8-1.6,3.9-4.4.5-15.9,1.2-31.8,1.9-47.8.4-8.8.7-17.6,1.3-26.6,3.9-10,7.6-19.7,11.7-29.3,3.5,6.5,6.9,12.8,9.9,19.2,14.2,29.9,28.4,59.7,42.3,89.7,2,4.4,4.4,6.3,9,5.4Z"/>
      <path class="cls-7" d="M712.9,885.3c-36.3.3-72.6.6-108.9.6-3.9,0-8.1-1.4-11.6-3.1-6.5-3.2-12.8-7.1-19-11-1.5-.9-2.8-3.3-2.9-5-.5-10.6-.8-21.3-.9-31.9-.5-34-.8-67.9-1.3-101.9-.3-18.6-.7-37.3-1-55.9-.3-21.1-.6-42.3-1-63.4-.3-15-.7-29.9-1.2-45.4-.1-6.9-.1-13.3-.1-20.3,6.7,0,13.1,0,20.4,0,18,0,35,0,52.3.2,4.5,4.1,8.9,7.9,12.9,12.1,1.5,1.6,2.7,4.1,2.8,6.3.7,9.9.9,19.8,1.2,30.2-.1,1.9-.2,3.4-.2,4.9,1.1,54.6,2.3,109.3,3.3,163.9.3,13.4,0,26.9,0,40.6,19.4,1.3,37.6,2.6,56.3,3.8,0-2.4,0-4.2,0-6,.2-26.7.4-53.3.7-80,.5-50.3,1-100.6,1.6-151.3.5-2.5.3-5,1.5-6.5,3.9-4.7,8.2-9.2,12.6-13.5,1.1-1.1,3.2-1.6,4.9-1.6,18-.5,35.9-.8,53.9-1.2,4.9-.1,9.8-.6,15.3-.9,0,12.2,0,23.7,0,35.5-.3,8.6-.5,16.7-.6,24.9-1.1,80.6-2.2,161.2-3.4,241.8,0,2.5-.8,5.2-1.9,7.5-3.5,7.5-7.4,14.9-11.1,22.3,0,0,0,0,0,0-.4.2-.5.4-.6.6-1,3.2-3.4,3.5-6.3,3.3-2.1-.1-4.3,0-7.3,0-20.7.1-40.5.2-60.2.2Z"/>
      <path class="cls-14" d="M892.4,258.9c-7.8-7.5-15.5-15.1-23.5-22.3-2.9-2.6-3.3-4.6-1.7-8,4.5-9.6,8.7-19.4,13.1-29.4,14.1,1.8,27.8,3.3,41.4,5.4,5.5.8,9.3,0,12.9-4.7,4.1-5.2,9.4-9.4,13.8-14.3,1.3-1.4,2.4-3.9,2.2-5.8-1.6-15.4-3.5-30.7-5.4-47,9.9-4.5,19.8-9.2,29.8-13.4,1.3-.5,4.1.7,5.3,2,9.1,9.5,18.1,19.1,26.9,28.9,2.6,2.9,4.9,3.8,9,3.1,7.7-1.4,15.5-1.8,23.3-2.1,3.4-.1,5.3-1.2,7.1-4,7-11.1,14.4-22,21.4-33.2,2.1-3.3,3.9-4.6,7.9-3.3,8.5,2.7,17.2,4.9,25.9,7.2,2.5.7,3.6,1.9,3.7,4.8.4,14,1.3,28,1.8,41.9.1,2.7.9,4.4,3.3,6,7.2,4.8,14,10.1,21.2,14.9,1.6,1.1,4.3,1.6,6.1,1.1,13.6-3.8,27-8,40.6-11.9,1.4-.4,4,.4,4.8,1.5,6.3,8.7,12.4,17.7,18.6,26.6-9.7,12.7-18.9,25-28.2,37-1.8,2.4-2.1,4.4-1.3,7.2,2,7.2,3.7,14.5,5.2,21.8.6,3.1,2,4.8,5,6,12.5,5.1,24.8,10.6,37.2,15.6,3,1.2,4.1,2.7,3.8,5.8-1.2,9.9-2.2,19.8-3.2,29.8-.3,3.1-2.2,3.6-4.6,4.1-13.8,3-27.6,6.1-41.4,9.4-2,.5-4.3,2.3-5.3,4.2-3.4,6.1-6.5,12.4-9.3,18.8-.7,1.6-.5,4.2.3,5.8,6.7,13.6,13.6,27,20.9,41.5-8.7,8.1-17.4,16.3-26.4,24.2-1.1.9-4,.7-5.5,0-12.6-6.3-25.2-12.8-37.7-19.5-2.7-1.4-4.7-1.4-7.3,0-4.6,2.4-9.3,4.6-14.1,6.3-3.5,1.3-5.5,3.2-5.9,7-.3,2.8-1.1,5.5-2.2,8.8-1.2.6-2,.8-2.9.8-9.5.4-16.5,6.3-18.2,15.4-1.3,7-2.4,14-4,21-5.7.1-11,.1-16.2.4-3.8.2-7.2,0-8.8-4.6,3.1-13.5,6.2-26.5,9.1-39.6,7.1-31.4,14-62.8,21.5-94.2,2.2.1,4.3-.2,5.9.5,2.9,1.1,5.9,2.5,8.4,4.3,4.4,3.2,7.4,2,11.1-1.5,4.2-3.8,5.9-7.2,2-12.1-.9-1.1-1.3-2.7-2-4-4.2-8.3-1.4-14.5,7.8-16.7,2.1-.5,4.2-1.4,6.3-1.5,5.1-.3,6.7-3.3,6.8-7.8,0-1,.1-2,.4-3,.8-3.1-.2-4.9-3.4-6-3.6-1.2-7.1-2.8-10.5-4.5-1.3-.7-2.6-2-3.1-3.4-2.3-5.8-2.7-11.3,2.7-16,1.8-1.6,3.3-3.8,4.6-5.9.6-.9.8-2.5.4-3.4-3.7-8.8-5.9-9.8-14.8-7.1-2.2.7-4.4,1.5-6.7,2.1-.9.3-2,.6-2.8.3-5-1.5-9.8-8.1-10-13.6,0-1.5-.3-3-.1-4.5.5-5.5-1.8-8.2-7.4-9.5-4.4-1-7.1-.7-9.2,3.7-1.3,2.8-3.3,5.4-5.1,8-.6.9-1.3,2.1-2.3,2.5-5.3,2.3-12.3.6-16.4-3.7q-8.3-8.9-18.9-3.2c-.3.1-.4.5-.9,1,.3,2.6.5,5.4.9,8.1.7,5.5,2.4,11.2-3.9,14.9-.4.2-.3,1.2-.8,2-.6.5-.9.8-1.6,1.2-5.4-.6-10.3-1-15.2-2-2.6-.5-3.9.4-5.1,2.5-5.1,9-5.1,9.4,2.4,16.1,1.4,1.2,3,2.3,3.9,3.8,1.2,2.1,2.2,4.5,2.6,6.9,1,4.7-1.2,7.8-5.5,9.9-2.8,1.4-5.4,3.3-8,5.1-.8.6-2,1.8-1.9,2.5,1,4,1.7,8.3,3.7,11.8.9,1.4,4.8,1.1,7.3,1.5,1.5.2,3,.4,4.5,1-2.1,12.5-4,24.6-6.3,36.6-5.7,30.6-11.5,61.1-17.3,91.7-.2.9-1.6,1.5-2.4,2.3,0,0,0,0-.2-.4-2.9-14.1-5.6-27.9-8.4-41.7-4.4-22.4-8.9-44.9-13.3-67.3-5-25.7-10.1-51.4-14.7-77.1-1-5.3-3.5-5.9-7.9-5.2-8.5,1.4-17.1,2.4-25.6,3.6Z"/>
      <path class="cls-2" d="M641.5,440.9c5.5,0,11,.3,16.5.1,3,0,4.4.7,4.8,4,.7,6.1,1.8,12.2,2.9,18.2,1.7,9.1,5.2,12,14.5,11.8,14-.3,28-.9,42-1.1,3.4,0,4.2-1.5,4.3-4.6.4-13.2.8-26.3,1.5-39.4.2-3.5-1.5-4.3-4.3-4.6-9.6-1-19.2-2.1-28.8-3.1-27.5-3.1-54.9-6.1-82.4-9.3-1.4-.2-2.7-1.1-3.9-1.8-.5-.3-.8-1-1.3-1.5-12.3-10.1-15.5-22.9-14.7-38.7,1.7-34.1,1.5-68.3,2.2-102.4,0-1.7.4-3.7,1.4-5,3.8-5.1,7.8-10,11.9-14.7,1-1.2,3.1-1.8,4.8-1.9,22.1-1.3,44.2-2.5,66.4-3.6,21.5-1.1,42.9-2.8,64.4-3,8.9,0,17.9,3.1,26.7,5.3,8.4,2.1,16.7,4.6,24.8,7.4,1.7.6,4,2.8,4.1,4.4,1.3,22.1,2.3,44.2,3.3,66.4,0,.7.2,1.7-.1,1.9-5.7,4.5-9.4,12-17.8,12.6-15,1-29.9,1.7-44.9,2.8-3.8.3-5.3-1-6.2-4.5-2.1-7.7-4.7-15.2-6.9-22.9-.8-2.7-2.1-3.8-5-3.5-14.3,1.3-28.5,2.4-42.8,3.8-1.6.2-4.1,1.7-4.3,2.8-1.6,13.5-2.9,27.1-4.3,41.2,7.2.8,13.9,1.6,20.6,2.2,28.4,2.6,56.7,5.6,85.1,7.3,9,.5,13.3,4,16.1,11.8,2.4,6.7,5.5,13.2,8.9,19.4,3.8,6.8,5.4,13.8,4.6,22.4-.3,6-.8,11.2-.9,16.3-.5,23.4-.8,46.9-1.2,70.3,0,4.3-.4,8.6-.9,12.9-.2,1.3-.9,2.9-1.9,3.8-6.3,5.9-12.7,11.7-19.3,17.3-1.5,1.3-3.8,1.7-6.1,2.2-12.8,0-25.2.2-38,.4-.8,0-1.2,0-2.2,0-4.5,0-8.5,0-12.9.1-8.2,0-15.9.2-24,.2-5.8.1-11.2.4-17.1.6-10.2,0-19.8,0-29.9,0-1.1,0-1.9,0-3,0-2.1,0-3.9,0-5.8,0-.4,0-.6,0-1.1,0-.8,0-1.2,0-2.1,0-1.5,0-2.5,0-3.8,0-.2,0-.7,0-1.2,0-10.5,0-20.5,0-30.6-.3-.3-.5-.6-.7-.9-1.2-3.1-7-6.5-13.5-9.3-20.2-1.7-4-3.8-8.5-3.5-12.7,1-15.2,3.1-30.4,4.5-45.5.4-4.7,0-9.5,0-14.3.9-3.1,1.8-6.2,2.7-9.3,6.5-.4,13-.9,20.3-1,8.5.3,16.3.4,24.1.4Z"/>
      <path class="cls-5" d="M884.6,797.8c-.3,8.8-.7,17.6-1,26.4-.6,15.9-1.3,31.8-1.9,47.8,0,2.8-.7,4.1-3.9,4.4-16.5,1.5-33,3.2-49.4,4.9-5.4.6-10.7,1.3-16.7,2.1-.2-3.6-.3-6.6-.4-10.4.4-47.2.9-93.5,1.3-139.8.3-41.1.5-82.3.6-123.4,0-5,1.3-6.8,6.5-6.4,5.6.4,11.3,0,17.4,0,16.4,0,32.4,0,48.4,0,2.9,0,4.3.9,5.5,3.7,3.1,7.3,6.8,14.5,10.2,21.7,13.1,27.8,26.3,55.7,39.4,83.5.8,1.7,1.9,3.2,2.9,4.7,1.3-5,1.7-9.6,1.8-14.1.1-30.3.2-60.6.2-91,0-3.5.5-5.5,4.8-5.6,16.8-.5,33.6-1.3,50.8-2,7.7-.3,14.9-.7,22.2-1.1.2,2.3.3,4.1.4,6.4-.3,13.6-.7,26.8-1.1,40.4-.7,22.7-1.4,45-2.1,67.8-.5,9.9-1,19.3-1.3,28.8-.6,19-1.1,38.1-1.6,57.1-.2,1.6-.7,3.2-.7,4.9-.8,22-1.7,43.9-2.2,65.9-.1,4.7-1.5,6.1-6.3,6.2-16.6.4-33.3,1.4-50.3,2.2-5.1,1-7.4-.9-9.4-5.3-13.9-30-28.1-59.8-42.3-89.7-3.1-6.4-6.4-12.8-9.9-19.6-3-6.7-5.6-13-8.3-19.3-.6.1-1.2.2-1.9.4-.6,16.3-1.2,32.6-1.8,48.9Z"/>
      <path class="cls-7" d="M1223.7,726.2c-.7,14.5-1.5,28.9-2,43.4-1.1,27.6-2.1,55.2-3.1,82.8,0,.8-.1,1.6-.3,2.9-31,3-61.9,6-92.5,8.9,0-46.6,0-93,0-140.2.2-16.9.4-33,.6-49.6,0-26.7,0-52.9,0-79.3-15.4-.7-30.7-1.4-46.4-2.2-6.2-.4-12-.8-17.8-1-10.5-.3-10.5-.2-10.5-10.9,0-24.5-.2-48.9-.3-73.8,1.1-1.1,2.1-2.2,3.1-2.3,4.2-.3,8.5-.3,13.2-.3,22.7,0,44.9,0,67.6.1,29,0,57.5,0,86.5,0,27.4,0,54.3,0,82,0-.4,5-.9,9.2-1.1,13.4-1.1,23.4-2.1,46.8-3,70.2-.1,3.7-1.5,4.4-4.8,4.4-6.5,0-12.9.4-19.8.6-15.8.6-31,1.2-46.8,1.8-.4,11.1-.8,21.9-1.3,32.6-.7,16.6-1.5,33.1-2.3,50.2-.4,16.3-.7,32.1-1.1,47.9Z"/>
      <path class="cls-5" d="M1000.1,257.2c.3-.3.6-.7,1.6-1.2,25.3,4.6,49.9,9.4,75,14.2-5,22.3-9.9,44-14.7,65.7-7,31.4-14,62.8-21.1,94.2-3,13.1-6.1,26.2-9.2,40-3.1,14.7-6.2,28.7-9.2,42.7-1,4.4-2.7,8.1-6.1,11.5-7.3,7.4-15.2,12.1-26.3,10.6-11.2.3-22,.7-32.7,1.1-10.5.2-21,.1-31.5.7-4.2.2-6.9-1.4-10.1-4-8-6.6-11.5-15-13.7-25-9.7-43.1-20.2-86-30.3-129-8.7-37-17.4-74-26.1-111-.1-.6,0-1.3,0-2.7,15.3-2,30.6-4,46.3-6.1,9-1.2,17.5-2.3,26-3.7,4.4-.7,7-.2,7.9,5.2,4.7,25.7,9.7,51.4,14.7,77.1,4.4,22.5,8.9,44.9,13.3,67.3,2.7,13.8,5.5,27.6,8.2,41.8.1.4.3.4.4.3.8-.8,2.2-1.4,2.4-2.3,5.9-30.5,11.6-61.1,17.3-91.7,2.2-12,4.2-24.1,6.6-36.9,3.9-20.1,7.6-39.5,11.3-59Z"/>
      <path class="cls-2" d="M1321.5,636.1c5.2,10.1,10.5,20.3,16.4,31.7,4.2-10.6,7.9-19.8,11.5-29,4.6-11.6,9.3-23.1,13.7-34.8,1.2-3.2,2.7-3.7,5.6-2.7,19.4,6.9,38.9,13.7,58.2,20.8,1.4.5,3,2.7,3.1,4.3,1,12.1.5,23.6-4.5,35.4-30.8,72.5-60.8,145.3-90.9,218.1-1.8,4.3-3.7,5.9-8.4,4.8-18.1-4.2-36.3-8.2-54.6-12-3.8-.8-4.8-2.6-5.6-6.2-1.5-6.8-.9-12.9,1.3-19.4,10-29.1,19.6-58.2,29.2-87.5.9-2.7.7-6.3-.4-8.9-4.3-10.2-9.2-20.3-14.3-30.9-7.3-16-14.3-31.4-21.4-46.7-2.5-5.5-5.5-10.8-8.3-16.5-4.9-11.5-9.9-22.7-14.8-33.9-1.4-3.1-2.7-6.2-4.3-9.9,3.3-.7,5.8-1.2,8.4-1.7,11.2-2.2,22.5-4.3,34.1-6.4,7.7-1.2,15.1-2.2,22.4-3.9,3.8-.9,5.3.6,6.9,3.7,5.4,10.6,11.1,21.1,16.7,31.6Z"/>
      <path class="cls-4" d="M1428.6,259.9q5.2,8-.4,15.3c-3.6,4.8-7.3,9.5-10.9,14.3-.3.4-.6.8-.9,1.2-2.2,3.2,2.4,20.7,6,22.2,7.3,3.2,14.6,6.4,22,9.4,2.4,1,3.4,2.2,3,4.8-.8,5.4-1,11-2.1,16.3-.4,1.7-2.7,3.7-4.4,4.2-7.7,2.1-15.6,3.5-23.3,5.5-1.8.5-3.3,2.2-4.7,3.7-.8.9-.8,2.6-1.7,3.6-5.2,6.2-3.9,12,.2,18.4,3.5,5.4,6,11.5,9.4,18.1-5.2,4.8-10.3,9.9-15.8,14.6-1,.8-3.4.9-4.7.2-7.3-3.5-14.6-7.2-21.7-11.2-2.7-1.5-4.7-.7-7.3,0-8.9,2.3-12.2,8.3-13.1,16.8-.5,4.9-2.3,9.7-3.2,14.6-.5,2.5-1.4,3.8-4.1,4-6,.3-11.9.7-17.9,1.3-2.8.3-4.1-.9-5.1-3.4-2.9-7.4-6-14.8-9.4-22-.8-1.7-2.9-3.1-4.8-4.1-7.8-4.2-14.4-1.7-20.4,4.1-2.3,2.2-5,3.8-7.6,5.7q-8.1,5.9-16.8.4-11.5-7.4-7.6-20.6c1.4-4.6,2.6-9.3,4.3-13.8,1.1-2.9-.1-4.7-1.3-7.2-3.9-8.4-10.6-10.3-18.9-10.1-5.3.1-10.7-.3-15.9-1-1.6-.2-3.7-2-4.3-3.5-1.9-5.5-3.4-11.1-4.6-16.8-.3-1.4.8-3.8,2-4.6,6.4-4.4,13-8.7,19.7-12.7,2.6-1.6,3.8-3.4,3.4-6.5-.2-1.1-.4-2.4,0-3.5,2.8-7.8-.9-12.7-6.8-17.3-4.5-3.5-8.5-7.5-12.3-11.6-1.1-1.2-1.6-3.8-1.1-5.4,1.1-3.8,2.8-7.4,4.6-11,3.5-7.2,3.6-7.2,11.4-6.1,6.1.8,12.2,2,18.3,2.4,2.2.1,4.8-1.2,6.8-2.5,1.8-1.1,2.7-3.6,4.5-4.6,6.7-4,6.3-9.9,5.1-16.4-1.1-5.9-1.7-11.9-2.3-17.8-.1-1.3.9-3.3,1.9-3.8,5.1-2.7,10.4-5.3,15.7-7.5,1.1-.5,3.4.4,4.4,1.3,5.6,5.7,10.9,11.7,16.6,17.3,1.4,1.4,4,2,6,2.1,2.6.2,5.4-1.1,7.9-.7,7,1,10.9-2.3,14-8.2,2.8-5.3,6.6-10,9.7-15.1,1.4-2.4,3-3.2,5.7-2.4,5.7,1.7,11.5,3.2,17.6,5,.4,8.8,1,17.4,1.1,26,0,3.6,1.2,6,4.4,7.6,1.6.8,3.5,1.6,4.6,3,5.5,6.4,11.8,6.5,19,3.3,4.5-2,9.6-2.6,14.3-4.4,3-1.1,4.9-.8,6.6,2,1.5,2.4,3.3,4.6,5.2,7.2M1348.4,283.9c.1-3.9-3.3-3.2-5.3-3.6-1.4-.3-3.3.8-4.5,1.9-2.2,2.1-3.5,5.6-6,6.8-4,1.8-7.7.4-10.6-3.6-3.1-4.2-6.3-4.6-9.3-.8-1.5,1.8-1.1,5.5-.9,8.3.4,5.6-2.8,9-8.2,8.4-2.5-.3-4.9-.4-7.6-.7-1.2,2.5-2.4,5-3.7,7.8,1.2,1.1,2.3,2.1,3.4,3.1,7.7,7.1,7.6,9.6-1.3,15.2-3,1.9-3.3,3.6-2.6,6.8,1.2,5.6,5.4,4.4,9,4.6,5.9.3,7.9,3.1,6.4,8.8-.2.8-.4,1.6-.7,2.4-1.5,3.4-.9,5.6,2.3,8,3.2,2.3,5.3,1.5,7.8-.8,1-.9,2.1-1.7,3.2-2.4,3.1-2.1,6.9-1.1,8.5,2.3.9,1.8,1.7,3.6,2.3,5.5.8,2.6,2.4,2.7,4.9,2.9,6.4.4,6.3-4.2,7.2-8.3,1.1-5.2,4.3-6.7,9.1-4.5,1.1.5,2.2.9,3.1,1.6,2.8,2,5,1.9,7.8-.8,2.6-2.6,2.9-4.7,1-7.6-4.8-7.2-1.7-12.8,6.1-13.1,4.6-.1,5.9-2.6,5.9-7.1,0-4.9-3.9-4.4-6.4-5.6-5.3-2.6-6.7-7.1-3.3-11.8,1.6-2.1,3.1-4.2,4.6-6.3-1.6-2.4-3-4.5-4.6-6.7-2.4.7-5,1-7.1,2.1-4.1,2.1-7.3,0-9-2.8-1.5-2.3-1.1-5.9-1.5-9.9Z"/>
      <path class="cls-12" d="M957.1,536.4c11-.7,21.7-1,33.1-1,9.3,13.6,18,27,26.9,40.2,2,2.9,1.5,4.8-.5,7.4-5.4,6.9-10.6,14-15.9,21-16.8.7-33.5,1.6-50.3,2.1-4.3.1-4.8,2.1-4.8,5.6,0,30.3,0,60.6-.2,91,0,4.6-.5,9.2-1.8,14.1-1-1.6-2.1-3.1-2.9-4.7-13.2-27.8-26.3-55.7-39.4-83.5-3.4-7.2-7.1-14.3-10.2-21.7-1.2-2.8-2.6-3.7-5.5-3.7-16,.1-32,0-48.6-.2-11.2-6.5-21.8-12.6-32.4-18.7v-35.1c-5.5.3-10.4.8-15.3.9-18,.5-35.9.8-53.9,1.2-1.7,0-3.8.5-4.9,1.6-4.4,4.3-8.7,8.7-12.6,13.5-1.2,1.4-1,4-1.9,6.4-4.7,1.3-8.9,2-13.1,3-17.2,4.2-33.1,11.4-48.1,20.6-.4-9.9-.7-19.8-1.3-29.7-.1-2.2-1.3-4.7-2.8-6.3-4-4.2-8.4-8-13.1-12.4-1-.9-1.6-1.4-1.8-1.9,1.4-.3,2.5-.6,3.6-.9.5,0,.9,0,1.8.1.7,0,1,0,1.2-.1,1.7,0,3.4,0,5.8.2,1.5.1,2.4,0,3.2-.2,9.7,0,19.4,0,29.8.2,4.2.5,7.6.8,11,.7,2.1,0,4.1-.9,6.2-1.4,7.7-.1,15.4-.3,23.9,0,4.9,0,9-.1,13.1-.3.5,0,.9,0,2,.2,12.4.4,24.2.6,35.9.6.7,0,1.4-.7,2.1-1,1.9-.8,4.2-1.2,5.8-2.5,6.6-5.6,12.9-11.4,19.3-17.3,1-.9,1.8-2.5,1.9-3.8.5-4.3.8-8.6.9-12.9.4-23.4.7-46.9,1.2-70.3,0-5.1.6-10.3,1-15.9,15.2,3.8,30.3,8,45.4,12.5,1.2.4,2.4,2.8,2.5,4.4.8,13.2,1.4,26.5,1.7,40.3-7.9.6-15.4.6-22.9.7-8.5,0-16.3,6.6-17.8,15-1.7,9.8-3.3,19.6-5,29.4-1.1,6.6,4,12.7,10.8,12.7,14.3,0,28.6,0,42.9,0q7.7,0,8.7-7.6c9.7,7.2,19.5,14.4,29,21.8,2.3,1.8,4,2.2,6.7,1.4,16.4-5.1,32.9-10,49.6-15.3Z"/>
      <path class="cls-5" d="M1114.6,731c-1,26.8-2.1,53.5-3.1,80.3-.8,21.4-1.5,42.9-2.3,64.7-22.9,2.4-45.6,4.9-68.4,7.3,0-28.2,0-55.9,0-84.6.2-3,.5-5.2.5-7.3,0-22.1,0-44.3.1-66.9.2-18.2.3-35.9.4-53.7,0-3.9-.2-7.9-.2-12.2.3-2.2.7-4,.7-5.8,0-14.4.2-28.9,0-43.3,0-3.4,1-4.5,4.5-4.6,11.3-.2,22.5-.7,34.2-1,12.7,0,24.9,0,36.8,0,0,6.6.1,13.7,0,20.8-.3,14.9-.7,29.8-1.2,45.2-.8,20.7-1.5,40.8-2.2,61Z"/>
      <path class="cls-1" d="M1321.9,636c-6-10.4-11.6-20.9-17.1-31.5-1.6-3-3-4.6-6.9-3.7-7.2,1.7-14.6,2.7-22.3,3.5-.3-3.8-.2-7.2,0-10.6,6.5-.2,12.9-.7,19.4-.7,3.3,0,4.6-.7,4.8-4.4.8-23.4,1.9-46.8,3-70.2.2-4.2.7-8.5,1.1-13.4-27.7,0-54.6,0-82.2-.3-17.6-8.5-35.4-11.8-54.1-9.6-11.4,1.4-22.6,3.7-32.7,9.8-22.2,0-44.4,0-67-.4,2-3.6,4.4-6.8,7.1-10.1,12.6,0,24.9.3,37.1.6,4.5.1,6.5-1.5,6.4-6.4-.2-9.1-.4-18.3.5-27.4.7-7.8,2-15.2-6.6-19.5,13.8-6.5,14.2-6.8,23.6,4.7,5.5,6.9,10.8,8.6,19.4,6.4,8.1-2,16.8-1.7,25.3-1.8,4.2,0,7.2-.5,9.3-4.7,2.2-4.3,5.5-8,7.7-12.2,2-4,4.7-5,8.8-3.8,10.5,3,21.1,5.8,31.6,9.1,1.5.5,3.1,2.9,3.2,4.6.7,6.5.6,13,1.2,19.4.1,1.5,1.3,3.3,2.6,4.2,10,7.4,20.2,14.6,30.4,21.8,1.2.9,3.3,1.2,4.8.9,6.1-1.6,12-3.8,18.2-5.3,1.5-.4,4.2.1,5,1.2,7,9.7,13.7,19.6,20.2,29.6.8,1.3.6,4.2-.4,5.5-3.6,5.4-7.8,10.3-11.5,15.7-.9,1.3-1.3,3.6-1,5.2,2.5,11.2,5.2,22.3,8.2,33.3.5,2,2.4,4.3,4.2,5.2,5.3,2.7,11.1,4.6,16.4,7.3,1.5.7,3.2,3.1,3,4.6-1.1,12.2-2.4,24.5-4.1,36.6-.2,1.5-2.3,3.3-4,3.9-3.9,1.3-8.1,2-12.5,3.1Z"/>
      <path class="cls-3" d="M1112,441.4c8.9,4.5,7.7,11.9,7,19.7-.9,9.1-.7,18.2-.5,27.4.1,4.9-1.9,6.5-6.4,6.4-12.3-.3-24.5-.5-37.6-.5-1.6.2-2.4.3-3.3.3-12.4,0-16.3-4.5-14.5-16.7.2-1.3.4-2.6.6-3.9,1.2-7,2.2-14,3.5-21,1.7-9.1,8.7-14.9,18.2-15.4.8,0,1.6-.2,2.8-.4,4.8,0,9.2,0,13.7-.2,5.9-.3,11.5,0,16.6,4.4Z"/>
      <path class="cls-3" d="M871.8,528.1q-.9,8.1-8.6,8.1c-14.3,0-28.6,0-42.9,0-6.8,0-11.9-6.1-10.8-12.7,1.6-9.8,3.2-19.6,5-29.4,1.5-8.4,9.2-14.9,17.8-15,7.5,0,15-.1,22.9-.2,6.1,3.2,12.1,5.9,17.1,10,1.6,1.3.9,5.9.8,9-.4,9.9-.9,19.9-1.3,30.2Z"/>
      <path class="cls-13" d="M1252.1,657c2.8,5.4,5.8,10.6,8.3,16.1,7.1,15.3,14,30.8,21.1,46.5q-6.6,6.4-14.3,2.4c-5.2-2.6-10.3-7.2-15.6-7.3-5-.1-10.1,4.4-15.2,6.7-3.9,1.7-8,3.2-12.4,4.8,0-15.8.3-31.6,1-48,9.2-7.4,18.2-14.3,27.1-21.2Z"/>
      <path class="cls-6" d="M1041.4,725c0,22.1,0,44.3,0,66.4,0,2.1-.4,4.3-.6,6.8-7.4,1.9-14.8,3.4-22.6,5,.1-19,.6-38.1,1.2-57.1.3-9.4.8-18.9,1.7-28.7,7.1,2.3,13.8,4.9,20.5,7.6Z"/>
      <path class="cls-8" d="M594,450.8c.4,4.7.7,9.5.3,14.2-1.4,15.2-3.5,30.3-4.5,45.5-.3,4.1,1.8,8.6,3.5,12.7,2.8,6.7,6.2,13.3,9.3,20.5.3.8.7,1,1,1.1,10,0,20,0,30.5.4.5.3.5.8.2,1-16,.3-31.7.4-47.4.4.5-1.8,1.7-3.7,1.5-5.4-3-26.1-6.2-52.1-9.5-78.2-.3-2.6-.1-4.3,2.5-5.6,4.2-2,8.2-4.4,12.6-6.7Z"/>
      <path class="cls-16" d="M1114.9,730.9c.4-20.1,1-40.3,2.2-60.8,3.4,1.4,6.3,3.1,9.3,4.8-.2,16.1-.4,32.2-.7,48.6-3.6,2.7-7,5-10.8,7.4Z"/>
      <path class="cls-11" d="M641.4,440.6c-7.7.2-15.5.2-23.6-.2,4.8-2.6,9.9-4.9,15.1-7,.8-.3,2.4.6,3.2,1.4,1.8,1.7,3.4,3.6,5.3,5.7Z"/>
      <path class="cls-15" d="M586.6,546.8c15.9-.1,31.6-.2,47.8-.5.7-.3.9-.3,1-.3,0,0,0,0,0,0,.6.5,1.1,1,1.8,1.7-16.9.2-33.9.3-51.4.2-.1-.4.2-.7.7-1.1Z"/>
      <path class="cls-9" d="M786.9,881.6c0-.2,0-.4.5-.6,0,0-.2.3-.5.6Z"/>
      <path class="cls-15" d="M775.2,543.6c-.4.6-1.1,1.3-1.8,1.3-11.8,0-23.5-.2-35.6-.6,12.2-.5,24.6-.7,37.4-.7Z"/>
      <path class="cls-15" d="M698.1,544.3c-1.6.6-3.7,1.5-5.7,1.6-3.4.1-6.8-.2-10.6-.7,5.1-.6,10.5-.8,16.3-.9Z"/>
      <path class="cls-15" d="M735,544c-3.6.3-7.8.5-12.2.4,3.7-.3,7.7-.4,12.2-.4Z"/>
      <path class="cls-15" d="M639.1,545c-.7.4-1.8.7-3.2,1-.4,0-.4,0-.4-.2,0-.2,0-.7,0-.7,1.1,0,2.1,0,3.6,0Z"/>
      <path class="cls-15" d="M651.1,545c-.5.2-1.4.4-2.4.3.6-.3,1.3-.3,2.4-.3Z"/>
      <path class="cls-15" d="M603.4,544.7c-.2,0-.6-.1-.9-.5.3-.1.6,0,.9.5Z"/>
      <path class="cls-15" d="M642.2,545.1c0,.1-.3.2-.6.2,0-.2.2-.2.6-.2Z"/>
      <path class="cls-12" d="M635.2,545c.2,0,.3.5.3.7-.2.2-.3.2-.8.2-.3,0-.2-.5-.2-.7,0-.2.5-.3.7-.3Z"/>
      <path class="cls-10" d="M1023.7,609.2c3.8-2.7,7.8-4.8,11.5-7.3.9-.6,1.2-2.6,1.3-3.9.8-10.6,1.6-21.2,2.2-31.8,0-1.5-.6-3.5-1.7-4.6-4.3-4.4-8.8-8.7-13.5-12.7-2.7-2.3-3.3-4.5-1.8-7.7,4.8-10.6,9.5-21.2,14.2-31.8,1.2-2.6,2.7-3.8,5.8-2.9,2.9.8,5.9.9,9.3,1.3.5,24.5.6,49,.7,73.4,0,10.7,0,10.6,10.5,10.9,5.8.1,11.6.6,17.8,1.4.5,3.8.6,7.1.7,10.4-11.3.4-22.5.9-33.8,1.1-3.5,0-4.6,1.1-4.5,4.6.1,14.4,0,28.9,0,43.3,0,1.8-.3,3.6-1.1,5.8-8.2.7-15.8,1.1-17.8-8.9,0-.3-.5-.4-.7-.6.3-13.2.7-26.3,1-39.9Z"/>
      <path class="cls-14" d="M962.5,447c-.1,0-.2,0-.2,0,.2,0,.2,0,.2,0Z"/>
    </g>
  </g>
</svg>